v 12.360680 0.000000 38.042261
v 40.000000 0.000000 0.000000
v 0.000000 50.000000 0.000000
v 40.000000 0.000000 0.000000
v 12.360680 0.000000 38.042261
v 0.000000 -50.000000 0.000000
v -32.360680 0.000000 23.511410
v 12.360680 0.000000 38.042261
v 0.000000 50.000000 0.000000
v 12.360680 0.000000 38.042261
v -32.360680 0.000000 23.511410
v 0.000000 -50.000000 0.000000
v -32.360680 0.000000 -23.511410
v -32.360680 0.000000 23.511410
v 0.000000 50.000000 0.000000
v -32.360680 0.000000 23.511410
v -32.360680 0.000000 -23.511410
v 0.000000 -50.000000 0.000000
v 12.360680 0.000000 -38.042261
v -32.360680 0.000000 -23.511410
v 0.000000 50.000000 0.000000
v -32.360680 0.000000 -23.511410
v 12.360680 0.000000 -38.042261
v 0.000000 -50.000000 0.000000
v 40.000000 0.000000 0.000000
v 12.360680 0.000000 -38.042261
v 0.000000 50.000000 0.000000
v 12.360680 0.000000 -38.042261
v 40.000000 0.000000 0.000000
v 0.000000 -50.000000 0.000000
vn 0.6792 0.5433 0.4935
vn 0.6792 -0.5433 0.4935
vn -0.2594 0.5433 0.7984
vn -0.2594 -0.5433 0.7984
vn -0.8395 0.5433 0.0000
vn -0.8395 -0.5433 0.0000
vn -0.2594 0.5433 -0.7984
vn -0.2594 -0.5433 -0.7984
vn 0.6792 0.5433 -0.4935
vn 0.6792 -0.5433 -0.4935
f 1//1 2//1 3//1
f 4//2 5//2 6//2
f 7//3 8//3 9//3
f 10//4 11//4 12//4
f 13//5 14//5 15//5
f 16//6 17//6 18//6
f 19//7 20//7 21//7
f 22//8 23//8 24//8
f 25//9 26//9 27//9
f 28//10 29//10 30//10
