v 34.641016 -12.247449 0.000000
v -17.320508 -12.247449 30.000000
v -17.320508 -12.247449 -30.000000
v 0.000000 36.742346 0.000000
v -17.320508 -12.247449 30.000000
v 34.641016 -12.247449 0.000000
v 0.000000 36.742346 0.000000
v -17.320508 -12.247449 -30.000000
v -17.320508 -12.247449 30.000000
v 0.000000 36.742346 0.000000
v 34.641016 -12.247449 0.000000
v -17.320508 -12.247449 -30.000000
vn -0.0000 -1.0000 0.0000
vn 0.4714 0.3333 0.8165
vn -0.9428 0.3333 0.0000
vn 0.4714 0.3333 -0.8165
f 1//1 2//1 3//1
f 4//2 5//2 6//2
f 7//3 8//3 9//3
f 10//4 11//4 12//4
